<mxfile host="app.diagrams.net" agent="Mozilla/5.0 (Macintosh; Intel Mac OS X 10_15_7) AppleWebKit/537.36 (KHTML, like Gecko) Chrome/141.0.0.0 Safari/537.36" version="28.2.7">
  <diagram name="Page-1" id="TxlCP_52Zl4pygI22ciM">
    <mxGraphModel dx="1298" dy="862" grid="0" gridSize="10" guides="1" tooltips="1" connect="1" arrows="1" fold="1" page="0" pageScale="1" pageWidth="827" pageHeight="1169" math="0" shadow="0">
      <root>
        <mxCell id="0" />
        <mxCell id="1" parent="0" />
        <mxCell id="ZICHwL9k2pLEv1YtmJDn-41" style="edgeStyle=orthogonalEdgeStyle;rounded=0;orthogonalLoop=1;jettySize=auto;html=1;exitX=0;exitY=0.5;exitDx=0;exitDy=0;entryX=1;entryY=0.5;entryDx=0;entryDy=0;curved=1;dashed=1;" edge="1" parent="1" source="ZICHwL9k2pLEv1YtmJDn-7" target="ZICHwL9k2pLEv1YtmJDn-1">
          <mxGeometry relative="1" as="geometry">
            <Array as="points">
              <mxPoint x="1365" y="1223" />
              <mxPoint x="1365" y="1390" />
            </Array>
          </mxGeometry>
        </mxCell>
        <mxCell id="ZICHwL9k2pLEv1YtmJDn-42" value="3 return 307 with the&lt;div&gt;candidate address&lt;/div&gt;" style="edgeLabel;html=1;align=center;verticalAlign=middle;resizable=0;points=[];" vertex="1" connectable="0" parent="ZICHwL9k2pLEv1YtmJDn-41">
          <mxGeometry x="-0.2243" y="2" relative="1" as="geometry">
            <mxPoint x="-34" y="-35" as="offset" />
          </mxGeometry>
        </mxCell>
        <mxCell id="ZICHwL9k2pLEv1YtmJDn-7" value="" style="rounded=0;whiteSpace=wrap;html=1;dashed=1;fillColor=#f5f5f5;fontColor=#333333;strokeColor=#666666;strokeWidth=2;" vertex="1" parent="1">
          <mxGeometry x="1400.5" y="1070" width="297" height="306" as="geometry" />
        </mxCell>
        <mxCell id="MgTznX3Nh4NJQTIRdK1o-61" value="" style="rounded=0;whiteSpace=wrap;html=1;dashed=1;fillColor=#f5f5f5;fontColor=#333333;strokeColor=#666666;" parent="1" vertex="1">
          <mxGeometry x="881" y="218" width="523" height="363" as="geometry" />
        </mxCell>
        <mxCell id="MgTznX3Nh4NJQTIRdK1o-23" value="" style="rounded=0;whiteSpace=wrap;html=1;dashed=1;fillColor=#f5f5f5;fontColor=#333333;strokeColor=#666666;" parent="1" vertex="1">
          <mxGeometry x="232" y="194" width="523" height="363" as="geometry" />
        </mxCell>
        <mxCell id="F9eBlbKyJguKDcQdJxCm-21" value="" style="edgeStyle=orthogonalEdgeStyle;rounded=0;orthogonalLoop=1;jettySize=auto;html=1;" parent="1" source="F9eBlbKyJguKDcQdJxCm-1" target="F9eBlbKyJguKDcQdJxCm-20" edge="1">
          <mxGeometry relative="1" as="geometry" />
        </mxCell>
        <mxCell id="F9eBlbKyJguKDcQdJxCm-1" value="Actor" style="shape=umlActor;verticalLabelPosition=bottom;verticalAlign=top;html=1;outlineConnect=0;" parent="1" vertex="1">
          <mxGeometry x="350" y="80" width="30" height="60" as="geometry" />
        </mxCell>
        <mxCell id="F9eBlbKyJguKDcQdJxCm-5" value="" style="rounded=1;whiteSpace=wrap;html=1;verticalAlign=top;arcSize=13;" parent="1" vertex="1">
          <mxGeometry x="305" y="287" width="120" height="40" as="geometry" />
        </mxCell>
        <mxCell id="MgTznX3Nh4NJQTIRdK1o-13" value="" style="edgeStyle=orthogonalEdgeStyle;rounded=0;orthogonalLoop=1;jettySize=auto;html=1;" parent="1" source="F9eBlbKyJguKDcQdJxCm-7" target="MgTznX3Nh4NJQTIRdK1o-12" edge="1">
          <mxGeometry relative="1" as="geometry" />
        </mxCell>
        <mxCell id="F9eBlbKyJguKDcQdJxCm-7" value="Allocate Server" style="text;html=1;align=center;verticalAlign=middle;whiteSpace=wrap;rounded=0;" parent="1" vertex="1">
          <mxGeometry x="322.5" y="292" width="85" height="30" as="geometry" />
        </mxCell>
        <mxCell id="F9eBlbKyJguKDcQdJxCm-11" value="" style="group" parent="1" vertex="1" connectable="0">
          <mxGeometry x="317.5" y="465" width="97" height="80" as="geometry" />
        </mxCell>
        <mxCell id="F9eBlbKyJguKDcQdJxCm-8" value="" style="rhombus;whiteSpace=wrap;html=1;verticalAlign=top;rounded=1;arcSize=13;" parent="F9eBlbKyJguKDcQdJxCm-11" vertex="1">
          <mxGeometry width="95" height="80" as="geometry" />
        </mxCell>
        <mxCell id="F9eBlbKyJguKDcQdJxCm-10" value="Is this server" style="text;html=1;align=center;verticalAlign=middle;whiteSpace=wrap;rounded=0;" parent="F9eBlbKyJguKDcQdJxCm-11" vertex="1">
          <mxGeometry x="8.75" y="25" width="79.5" height="30" as="geometry" />
        </mxCell>
        <mxCell id="F9eBlbKyJguKDcQdJxCm-22" value="" style="edgeStyle=orthogonalEdgeStyle;rounded=0;orthogonalLoop=1;jettySize=auto;html=1;" parent="1" source="F9eBlbKyJguKDcQdJxCm-20" target="F9eBlbKyJguKDcQdJxCm-7" edge="1">
          <mxGeometry relative="1" as="geometry" />
        </mxCell>
        <mxCell id="F9eBlbKyJguKDcQdJxCm-20" value="Generate SessionId" style="rounded=1;whiteSpace=wrap;html=1;" parent="1" vertex="1">
          <mxGeometry x="302.5" y="210" width="125" height="40" as="geometry" />
        </mxCell>
        <mxCell id="F9eBlbKyJguKDcQdJxCm-26" value="Create Session" style="whiteSpace=wrap;html=1;fillColor=#f8cecc;strokeColor=#b85450;" parent="1" vertex="1">
          <mxGeometry x="305" y="611" width="120" height="60" as="geometry" />
        </mxCell>
        <mxCell id="F9eBlbKyJguKDcQdJxCm-30" value="" style="edgeStyle=orthogonalEdgeStyle;rounded=0;orthogonalLoop=1;jettySize=auto;html=1;entryX=0.5;entryY=0;entryDx=0;entryDy=0;" parent="1" source="F9eBlbKyJguKDcQdJxCm-31" target="MgTznX3Nh4NJQTIRdK1o-69" edge="1">
          <mxGeometry relative="1" as="geometry">
            <mxPoint x="1014.5" y="212.5" as="targetPoint" />
          </mxGeometry>
        </mxCell>
        <mxCell id="F9eBlbKyJguKDcQdJxCm-31" value="Actor" style="shape=umlActor;verticalLabelPosition=bottom;verticalAlign=top;html=1;outlineConnect=0;" parent="1" vertex="1">
          <mxGeometry x="999.5" y="82.5" width="30" height="60" as="geometry" />
        </mxCell>
        <mxCell id="F9eBlbKyJguKDcQdJxCm-50" value="Get Session" style="whiteSpace=wrap;html=1;fillColor=#f8cecc;strokeColor=#b85450;" parent="1" vertex="1">
          <mxGeometry x="954" y="656" width="120" height="60" as="geometry" />
        </mxCell>
        <mxCell id="F9eBlbKyJguKDcQdJxCm-53" value="" style="shape=umlLifeline;perimeter=lifelinePerimeter;whiteSpace=wrap;html=1;container=1;dropTarget=0;collapsible=0;recursiveResize=0;outlineConnect=0;portConstraint=eastwest;newEdgeStyle={&quot;curved&quot;:0,&quot;rounded&quot;:0};participant=umlActor;" parent="1" vertex="1">
          <mxGeometry x="67" y="961" width="20" height="493" as="geometry" />
        </mxCell>
        <mxCell id="F9eBlbKyJguKDcQdJxCm-54" value="Livy Gateway" style="shape=umlLifeline;perimeter=lifelinePerimeter;whiteSpace=wrap;html=1;container=1;dropTarget=0;collapsible=0;recursiveResize=0;outlineConnect=0;portConstraint=eastwest;newEdgeStyle={&quot;curved&quot;:0,&quot;rounded&quot;:0};" parent="1" vertex="1">
          <mxGeometry x="387" y="964" width="100" height="500" as="geometry" />
        </mxCell>
        <mxCell id="F9eBlbKyJguKDcQdJxCm-68" value="" style="html=1;outlineConnect=0;targetShapes=umlLifeline;portConstraint=eastwest;newEdgeStyle={&quot;curved&quot;:0,&quot;rounded&quot;:0};points=[[0,0,0,0,5],[0,1,0,0,-5],[1,0,0,0,5],[1,1,0,0,-5]];perimeter=orthogonalPerimeter;" parent="F9eBlbKyJguKDcQdJxCm-54" vertex="1">
          <mxGeometry x="45" y="117" width="10" height="151" as="geometry" />
        </mxCell>
        <mxCell id="F9eBlbKyJguKDcQdJxCm-72" value="Generate session id" style="html=1;align=left;spacingLeft=2;endArrow=block;rounded=0;edgeStyle=orthogonalEdgeStyle;curved=0;rounded=0;" parent="F9eBlbKyJguKDcQdJxCm-54" edge="1">
          <mxGeometry relative="1" as="geometry">
            <mxPoint x="50" y="129" as="sourcePoint" />
            <Array as="points">
              <mxPoint x="80" y="159" />
            </Array>
            <mxPoint x="55" y="159" as="targetPoint" />
          </mxGeometry>
        </mxCell>
        <mxCell id="F9eBlbKyJguKDcQdJxCm-74" value="Allocate online server" style="html=1;align=left;spacingLeft=2;endArrow=block;rounded=0;edgeStyle=orthogonalEdgeStyle;curved=0;rounded=0;" parent="F9eBlbKyJguKDcQdJxCm-54" edge="1">
          <mxGeometry relative="1" as="geometry">
            <mxPoint x="50" y="178" as="sourcePoint" />
            <Array as="points">
              <mxPoint x="80" y="208" />
            </Array>
            <mxPoint x="55" y="208" as="targetPoint" />
          </mxGeometry>
        </mxCell>
        <mxCell id="F9eBlbKyJguKDcQdJxCm-55" value="Livy Group 1" style="shape=umlLifeline;perimeter=lifelinePerimeter;whiteSpace=wrap;html=1;container=1;dropTarget=0;collapsible=0;recursiveResize=0;outlineConnect=0;portConstraint=eastwest;newEdgeStyle={&quot;curved&quot;:0,&quot;rounded&quot;:0};" parent="1" vertex="1">
          <mxGeometry x="585" y="964" width="100" height="500" as="geometry" />
        </mxCell>
        <mxCell id="F9eBlbKyJguKDcQdJxCm-75" value="" style="html=1;points=[[0,0,0,0,5],[0,1,0,0,-5],[1,0,0,0,5],[1,1,0,0,-5]];perimeter=orthogonalPerimeter;outlineConnect=0;targetShapes=umlLifeline;portConstraint=eastwest;newEdgeStyle={&quot;curved&quot;:0,&quot;rounded&quot;:0};" parent="F9eBlbKyJguKDcQdJxCm-55" vertex="1">
          <mxGeometry x="45" y="307" width="10" height="80" as="geometry" />
        </mxCell>
        <mxCell id="F9eBlbKyJguKDcQdJxCm-80" value="Create Session" style="html=1;align=left;spacingLeft=2;endArrow=block;rounded=0;edgeStyle=orthogonalEdgeStyle;curved=0;rounded=0;" parent="F9eBlbKyJguKDcQdJxCm-55" edge="1">
          <mxGeometry relative="1" as="geometry">
            <mxPoint x="51" y="317" as="sourcePoint" />
            <Array as="points">
              <mxPoint x="81" y="347" />
            </Array>
            <mxPoint x="56" y="347" as="targetPoint" />
          </mxGeometry>
        </mxCell>
        <mxCell id="F9eBlbKyJguKDcQdJxCm-56" value="Livy Group N" style="shape=umlLifeline;perimeter=lifelinePerimeter;whiteSpace=wrap;html=1;container=1;dropTarget=0;collapsible=0;recursiveResize=0;outlineConnect=0;portConstraint=eastwest;newEdgeStyle={&quot;curved&quot;:0,&quot;rounded&quot;:0};" parent="1" vertex="1">
          <mxGeometry x="783" y="964" width="100" height="504" as="geometry" />
        </mxCell>
        <mxCell id="F9eBlbKyJguKDcQdJxCm-58" value="Create Session" style="html=1;verticalAlign=bottom;endArrow=block;curved=0;rounded=0;entryX=0;entryY=0;entryDx=0;entryDy=5;" parent="1" source="F9eBlbKyJguKDcQdJxCm-53" target="F9eBlbKyJguKDcQdJxCm-57" edge="1">
          <mxGeometry relative="1" as="geometry">
            <mxPoint x="220" y="1056" as="sourcePoint" />
          </mxGeometry>
        </mxCell>
        <mxCell id="F9eBlbKyJguKDcQdJxCm-59" value="return" style="html=1;verticalAlign=bottom;endArrow=open;dashed=1;endSize=8;curved=0;rounded=0;exitX=0;exitY=1;exitDx=0;exitDy=-5;" parent="1" source="F9eBlbKyJguKDcQdJxCm-57" target="F9eBlbKyJguKDcQdJxCm-53" edge="1">
          <mxGeometry relative="1" as="geometry">
            <mxPoint x="220" y="1126" as="targetPoint" />
          </mxGeometry>
        </mxCell>
        <mxCell id="F9eBlbKyJguKDcQdJxCm-67" value="ALB" style="shape=umlLifeline;perimeter=lifelinePerimeter;whiteSpace=wrap;html=1;container=1;dropTarget=0;collapsible=0;recursiveResize=0;outlineConnect=0;portConstraint=eastwest;newEdgeStyle={&quot;curved&quot;:0,&quot;rounded&quot;:0};" parent="1" vertex="1">
          <mxGeometry x="193" y="964" width="100" height="494" as="geometry" />
        </mxCell>
        <mxCell id="F9eBlbKyJguKDcQdJxCm-57" value="" style="html=1;points=[[0,0,0,0,5],[0,1,0,0,-5],[1,0,0,0,5],[1,1,0,0,-5]];perimeter=orthogonalPerimeter;outlineConnect=0;targetShapes=umlLifeline;portConstraint=eastwest;newEdgeStyle={&quot;curved&quot;:0,&quot;rounded&quot;:0};" parent="F9eBlbKyJguKDcQdJxCm-67" vertex="1">
          <mxGeometry x="45" y="89" width="10" height="322" as="geometry" />
        </mxCell>
        <mxCell id="F9eBlbKyJguKDcQdJxCm-69" value="Post request" style="html=1;verticalAlign=bottom;endArrow=block;curved=0;rounded=0;entryX=0;entryY=0;entryDx=0;entryDy=5;" parent="1" source="F9eBlbKyJguKDcQdJxCm-57" target="F9eBlbKyJguKDcQdJxCm-68" edge="1">
          <mxGeometry relative="1" as="geometry">
            <mxPoint x="362" y="1086" as="sourcePoint" />
          </mxGeometry>
        </mxCell>
        <mxCell id="F9eBlbKyJguKDcQdJxCm-70" value="return 307&amp;nbsp;" style="html=1;verticalAlign=bottom;endArrow=open;dashed=1;endSize=8;curved=0;rounded=0;exitX=0;exitY=1;exitDx=0;exitDy=-5;" parent="1" source="F9eBlbKyJguKDcQdJxCm-68" target="F9eBlbKyJguKDcQdJxCm-57" edge="1">
          <mxGeometry relative="1" as="geometry">
            <mxPoint x="362" y="1156" as="targetPoint" />
          </mxGeometry>
        </mxCell>
        <mxCell id="F9eBlbKyJguKDcQdJxCm-76" value="Post:id" style="html=1;verticalAlign=bottom;endArrow=block;curved=0;rounded=0;entryX=0;entryY=0;entryDx=0;entryDy=5;" parent="1" source="F9eBlbKyJguKDcQdJxCm-57" target="F9eBlbKyJguKDcQdJxCm-75" edge="1">
          <mxGeometry relative="1" as="geometry">
            <mxPoint x="560" y="1276" as="sourcePoint" />
          </mxGeometry>
        </mxCell>
        <mxCell id="F9eBlbKyJguKDcQdJxCm-77" value="return" style="html=1;verticalAlign=bottom;endArrow=open;dashed=1;endSize=8;curved=0;rounded=0;exitX=0;exitY=1;exitDx=0;exitDy=-5;" parent="1" source="F9eBlbKyJguKDcQdJxCm-75" target="F9eBlbKyJguKDcQdJxCm-67" edge="1">
          <mxGeometry relative="1" as="geometry">
            <mxPoint x="560" y="1346" as="targetPoint" />
          </mxGeometry>
        </mxCell>
        <mxCell id="F9eBlbKyJguKDcQdJxCm-78" value="..." style="text;html=1;align=center;verticalAlign=middle;whiteSpace=wrap;rounded=0;" parent="1" vertex="1">
          <mxGeometry x="704" y="968" width="60" height="30" as="geometry" />
        </mxCell>
        <mxCell id="F9eBlbKyJguKDcQdJxCm-81" value="" style="shape=umlLifeline;perimeter=lifelinePerimeter;whiteSpace=wrap;html=1;container=1;dropTarget=0;collapsible=0;recursiveResize=0;outlineConnect=0;portConstraint=eastwest;newEdgeStyle={&quot;curved&quot;:0,&quot;rounded&quot;:0};participant=umlActor;" parent="1" vertex="1">
          <mxGeometry x="67" y="1537" width="20" height="493" as="geometry" />
        </mxCell>
        <mxCell id="F9eBlbKyJguKDcQdJxCm-82" value="Livy Gateway" style="shape=umlLifeline;perimeter=lifelinePerimeter;whiteSpace=wrap;html=1;container=1;dropTarget=0;collapsible=0;recursiveResize=0;outlineConnect=0;portConstraint=eastwest;newEdgeStyle={&quot;curved&quot;:0,&quot;rounded&quot;:0};" parent="1" vertex="1">
          <mxGeometry x="387" y="1540" width="100" height="500" as="geometry" />
        </mxCell>
        <mxCell id="F9eBlbKyJguKDcQdJxCm-83" value="" style="html=1;outlineConnect=0;targetShapes=umlLifeline;portConstraint=eastwest;newEdgeStyle={&quot;curved&quot;:0,&quot;rounded&quot;:0};points=[[0,0,0,0,5],[0,1,0,0,-5],[1,0,0,0,5],[1,1,0,0,-5]];perimeter=orthogonalPerimeter;" parent="F9eBlbKyJguKDcQdJxCm-82" vertex="1">
          <mxGeometry x="45" y="117" width="10" height="151" as="geometry" />
        </mxCell>
        <mxCell id="F9eBlbKyJguKDcQdJxCm-84" value="Find session by sessionId" style="html=1;align=left;spacingLeft=2;endArrow=block;rounded=0;edgeStyle=orthogonalEdgeStyle;curved=0;rounded=0;" parent="F9eBlbKyJguKDcQdJxCm-82" edge="1">
          <mxGeometry relative="1" as="geometry">
            <mxPoint x="50" y="129" as="sourcePoint" />
            <Array as="points">
              <mxPoint x="80" y="159" />
            </Array>
            <mxPoint x="55" y="159" as="targetPoint" />
          </mxGeometry>
        </mxCell>
        <mxCell id="F9eBlbKyJguKDcQdJxCm-85" value="Allocate online server if server offline" style="html=1;align=left;spacingLeft=2;endArrow=block;rounded=0;edgeStyle=orthogonalEdgeStyle;curved=0;rounded=0;" parent="F9eBlbKyJguKDcQdJxCm-82" edge="1">
          <mxGeometry relative="1" as="geometry">
            <mxPoint x="50" y="178" as="sourcePoint" />
            <Array as="points">
              <mxPoint x="80" y="208" />
            </Array>
            <mxPoint x="55" y="208" as="targetPoint" />
          </mxGeometry>
        </mxCell>
        <mxCell id="F9eBlbKyJguKDcQdJxCm-86" value="Livy Group 1" style="shape=umlLifeline;perimeter=lifelinePerimeter;whiteSpace=wrap;html=1;container=1;dropTarget=0;collapsible=0;recursiveResize=0;outlineConnect=0;portConstraint=eastwest;newEdgeStyle={&quot;curved&quot;:0,&quot;rounded&quot;:0};" parent="1" vertex="1">
          <mxGeometry x="631" y="1540" width="100" height="500" as="geometry" />
        </mxCell>
        <mxCell id="F9eBlbKyJguKDcQdJxCm-87" value="" style="html=1;points=[[0,0,0,0,5],[0,1,0,0,-5],[1,0,0,0,5],[1,1,0,0,-5]];perimeter=orthogonalPerimeter;outlineConnect=0;targetShapes=umlLifeline;portConstraint=eastwest;newEdgeStyle={&quot;curved&quot;:0,&quot;rounded&quot;:0};" parent="F9eBlbKyJguKDcQdJxCm-86" vertex="1">
          <mxGeometry x="45" y="307" width="10" height="80" as="geometry" />
        </mxCell>
        <mxCell id="F9eBlbKyJguKDcQdJxCm-88" value="Get Session" style="html=1;align=left;spacingLeft=2;endArrow=block;rounded=0;edgeStyle=orthogonalEdgeStyle;curved=0;rounded=0;" parent="F9eBlbKyJguKDcQdJxCm-86" edge="1">
          <mxGeometry relative="1" as="geometry">
            <mxPoint x="51" y="317" as="sourcePoint" />
            <Array as="points">
              <mxPoint x="81" y="347" />
            </Array>
            <mxPoint x="56" y="347" as="targetPoint" />
          </mxGeometry>
        </mxCell>
        <mxCell id="F9eBlbKyJguKDcQdJxCm-89" value="Livy Group N" style="shape=umlLifeline;perimeter=lifelinePerimeter;whiteSpace=wrap;html=1;container=1;dropTarget=0;collapsible=0;recursiveResize=0;outlineConnect=0;portConstraint=eastwest;newEdgeStyle={&quot;curved&quot;:0,&quot;rounded&quot;:0};" parent="1" vertex="1">
          <mxGeometry x="829" y="1540" width="100" height="504" as="geometry" />
        </mxCell>
        <mxCell id="F9eBlbKyJguKDcQdJxCm-90" value="Get Session" style="html=1;verticalAlign=bottom;endArrow=block;curved=0;rounded=0;entryX=0;entryY=0;entryDx=0;entryDy=5;" parent="1" source="F9eBlbKyJguKDcQdJxCm-81" target="F9eBlbKyJguKDcQdJxCm-93" edge="1">
          <mxGeometry relative="1" as="geometry">
            <mxPoint x="220" y="1632" as="sourcePoint" />
          </mxGeometry>
        </mxCell>
        <mxCell id="F9eBlbKyJguKDcQdJxCm-91" value="return" style="html=1;verticalAlign=bottom;endArrow=open;dashed=1;endSize=8;curved=0;rounded=0;exitX=0;exitY=1;exitDx=0;exitDy=-5;" parent="1" source="F9eBlbKyJguKDcQdJxCm-93" target="F9eBlbKyJguKDcQdJxCm-81" edge="1">
          <mxGeometry relative="1" as="geometry">
            <mxPoint x="220" y="1702" as="targetPoint" />
          </mxGeometry>
        </mxCell>
        <mxCell id="F9eBlbKyJguKDcQdJxCm-92" value="ALB" style="shape=umlLifeline;perimeter=lifelinePerimeter;whiteSpace=wrap;html=1;container=1;dropTarget=0;collapsible=0;recursiveResize=0;outlineConnect=0;portConstraint=eastwest;newEdgeStyle={&quot;curved&quot;:0,&quot;rounded&quot;:0};" parent="1" vertex="1">
          <mxGeometry x="193" y="1540" width="100" height="494" as="geometry" />
        </mxCell>
        <mxCell id="F9eBlbKyJguKDcQdJxCm-93" value="" style="html=1;points=[[0,0,0,0,5],[0,1,0,0,-5],[1,0,0,0,5],[1,1,0,0,-5]];perimeter=orthogonalPerimeter;outlineConnect=0;targetShapes=umlLifeline;portConstraint=eastwest;newEdgeStyle={&quot;curved&quot;:0,&quot;rounded&quot;:0};" parent="F9eBlbKyJguKDcQdJxCm-92" vertex="1">
          <mxGeometry x="45" y="89" width="10" height="322" as="geometry" />
        </mxCell>
        <mxCell id="F9eBlbKyJguKDcQdJxCm-94" value="Get:id" style="html=1;verticalAlign=bottom;endArrow=block;curved=0;rounded=0;entryX=0;entryY=0;entryDx=0;entryDy=5;" parent="1" source="F9eBlbKyJguKDcQdJxCm-93" target="F9eBlbKyJguKDcQdJxCm-83" edge="1">
          <mxGeometry relative="1" as="geometry">
            <mxPoint x="362" y="1662" as="sourcePoint" />
          </mxGeometry>
        </mxCell>
        <mxCell id="F9eBlbKyJguKDcQdJxCm-95" value="return 307&amp;nbsp;" style="html=1;verticalAlign=bottom;endArrow=open;dashed=1;endSize=8;curved=0;rounded=0;exitX=0;exitY=1;exitDx=0;exitDy=-5;" parent="1" source="F9eBlbKyJguKDcQdJxCm-83" target="F9eBlbKyJguKDcQdJxCm-93" edge="1">
          <mxGeometry relative="1" as="geometry">
            <mxPoint x="362" y="1732" as="targetPoint" />
          </mxGeometry>
        </mxCell>
        <mxCell id="F9eBlbKyJguKDcQdJxCm-96" value="Get:id" style="html=1;verticalAlign=bottom;endArrow=block;curved=0;rounded=0;entryX=0;entryY=0;entryDx=0;entryDy=5;" parent="1" source="F9eBlbKyJguKDcQdJxCm-93" target="F9eBlbKyJguKDcQdJxCm-87" edge="1">
          <mxGeometry relative="1" as="geometry">
            <mxPoint x="560" y="1852" as="sourcePoint" />
          </mxGeometry>
        </mxCell>
        <mxCell id="F9eBlbKyJguKDcQdJxCm-97" value="return" style="html=1;verticalAlign=bottom;endArrow=open;dashed=1;endSize=8;curved=0;rounded=0;exitX=0;exitY=1;exitDx=0;exitDy=-5;" parent="1" source="F9eBlbKyJguKDcQdJxCm-87" target="F9eBlbKyJguKDcQdJxCm-92" edge="1">
          <mxGeometry relative="1" as="geometry">
            <mxPoint x="560" y="1922" as="targetPoint" />
          </mxGeometry>
        </mxCell>
        <mxCell id="F9eBlbKyJguKDcQdJxCm-98" value="..." style="text;html=1;align=center;verticalAlign=middle;whiteSpace=wrap;rounded=0;" parent="1" vertex="1">
          <mxGeometry x="750" y="1544" width="60" height="30" as="geometry" />
        </mxCell>
        <mxCell id="MgTznX3Nh4NJQTIRdK1o-16" value="" style="edgeStyle=orthogonalEdgeStyle;rounded=0;orthogonalLoop=1;jettySize=auto;html=1;" parent="1" source="MgTznX3Nh4NJQTIRdK1o-12" edge="1">
          <mxGeometry relative="1" as="geometry">
            <mxPoint x="365" y="474" as="targetPoint" />
          </mxGeometry>
        </mxCell>
        <mxCell id="MgTznX3Nh4NJQTIRdK1o-12" value="Save node to MySQL" style="rounded=1;whiteSpace=wrap;html=1;" parent="1" vertex="1">
          <mxGeometry x="304" y="379.5" width="122" height="36" as="geometry" />
        </mxCell>
        <mxCell id="MgTznX3Nh4NJQTIRdK1o-20" value="" style="edgeStyle=orthogonalEdgeStyle;rounded=0;orthogonalLoop=1;jettySize=auto;html=1;entryX=0.5;entryY=0;entryDx=0;entryDy=0;" parent="1" source="F9eBlbKyJguKDcQdJxCm-8" target="F9eBlbKyJguKDcQdJxCm-26" edge="1">
          <mxGeometry relative="1" as="geometry">
            <mxPoint x="365" y="605" as="targetPoint" />
          </mxGeometry>
        </mxCell>
        <mxCell id="MgTznX3Nh4NJQTIRdK1o-21" value="Yes" style="edgeLabel;html=1;align=center;verticalAlign=middle;resizable=0;points=[];" parent="MgTznX3Nh4NJQTIRdK1o-20" vertex="1" connectable="0">
          <mxGeometry x="-0.2667" y="-3" relative="1" as="geometry">
            <mxPoint as="offset" />
          </mxGeometry>
        </mxCell>
        <mxCell id="MgTznX3Nh4NJQTIRdK1o-55" value="" style="edgeStyle=orthogonalEdgeStyle;rounded=0;orthogonalLoop=1;jettySize=auto;html=1;" parent="1" source="MgTznX3Nh4NJQTIRdK1o-48" target="MgTznX3Nh4NJQTIRdK1o-52" edge="1">
          <mxGeometry relative="1" as="geometry" />
        </mxCell>
        <mxCell id="MgTznX3Nh4NJQTIRdK1o-56" value="Yes" style="edgeLabel;html=1;align=center;verticalAlign=middle;resizable=0;points=[];" parent="MgTznX3Nh4NJQTIRdK1o-55" vertex="1" connectable="0">
          <mxGeometry x="-0.3418" y="-1" relative="1" as="geometry">
            <mxPoint y="1" as="offset" />
          </mxGeometry>
        </mxCell>
        <mxCell id="MgTznX3Nh4NJQTIRdK1o-57" style="edgeStyle=orthogonalEdgeStyle;rounded=0;orthogonalLoop=1;jettySize=auto;html=1;entryX=1;entryY=0.5;entryDx=0;entryDy=0;exitX=0.5;exitY=0;exitDx=0;exitDy=0;" parent="1" source="MgTznX3Nh4NJQTIRdK1o-48" target="F9eBlbKyJguKDcQdJxCm-5" edge="1">
          <mxGeometry relative="1" as="geometry" />
        </mxCell>
        <mxCell id="MgTznX3Nh4NJQTIRdK1o-58" value="No" style="edgeLabel;html=1;align=center;verticalAlign=middle;resizable=0;points=[];" parent="MgTznX3Nh4NJQTIRdK1o-57" vertex="1" connectable="0">
          <mxGeometry x="-0.2167" relative="1" as="geometry">
            <mxPoint as="offset" />
          </mxGeometry>
        </mxCell>
        <mxCell id="MgTznX3Nh4NJQTIRdK1o-48" value="Is node online" style="rhombus;whiteSpace=wrap;html=1;" parent="1" vertex="1">
          <mxGeometry x="474" y="460.5" width="98" height="90" as="geometry" />
        </mxCell>
        <mxCell id="MgTznX3Nh4NJQTIRdK1o-52" value="Temporary Redirect" style="rounded=1;whiteSpace=wrap;html=1;" parent="1" vertex="1">
          <mxGeometry x="611" y="475" width="120" height="60" as="geometry" />
        </mxCell>
        <mxCell id="MgTznX3Nh4NJQTIRdK1o-53" value="" style="edgeStyle=orthogonalEdgeStyle;rounded=0;orthogonalLoop=1;jettySize=auto;html=1;" parent="1" source="F9eBlbKyJguKDcQdJxCm-10" target="MgTznX3Nh4NJQTIRdK1o-48" edge="1">
          <mxGeometry relative="1" as="geometry" />
        </mxCell>
        <mxCell id="MgTznX3Nh4NJQTIRdK1o-54" value="No" style="edgeLabel;html=1;align=center;verticalAlign=middle;resizable=0;points=[];" parent="MgTznX3Nh4NJQTIRdK1o-53" vertex="1" connectable="0">
          <mxGeometry x="-0.12" y="-2" relative="1" as="geometry">
            <mxPoint as="offset" />
          </mxGeometry>
        </mxCell>
        <mxCell id="MgTznX3Nh4NJQTIRdK1o-65" value="" style="group" parent="1" vertex="1" connectable="0">
          <mxGeometry x="966.5" y="489" width="97" height="80" as="geometry" />
        </mxCell>
        <mxCell id="MgTznX3Nh4NJQTIRdK1o-66" value="" style="rhombus;whiteSpace=wrap;html=1;verticalAlign=top;rounded=1;arcSize=13;" parent="MgTznX3Nh4NJQTIRdK1o-65" vertex="1">
          <mxGeometry width="95" height="80" as="geometry" />
        </mxCell>
        <mxCell id="MgTznX3Nh4NJQTIRdK1o-67" value="Is this server" style="text;html=1;align=center;verticalAlign=middle;whiteSpace=wrap;rounded=0;" parent="MgTznX3Nh4NJQTIRdK1o-65" vertex="1">
          <mxGeometry x="8.75" y="25" width="79.5" height="30" as="geometry" />
        </mxCell>
        <mxCell id="MgTznX3Nh4NJQTIRdK1o-83" style="edgeStyle=orthogonalEdgeStyle;rounded=0;orthogonalLoop=1;jettySize=auto;html=1;" parent="1" source="MgTznX3Nh4NJQTIRdK1o-69" target="MgTznX3Nh4NJQTIRdK1o-66" edge="1">
          <mxGeometry relative="1" as="geometry" />
        </mxCell>
        <mxCell id="MgTznX3Nh4NJQTIRdK1o-69" value="Find server by sessionId" style="rounded=1;whiteSpace=wrap;html=1;" parent="1" vertex="1">
          <mxGeometry x="951.5" y="234" width="125" height="40" as="geometry" />
        </mxCell>
        <mxCell id="MgTznX3Nh4NJQTIRdK1o-82" value="" style="edgeStyle=orthogonalEdgeStyle;rounded=0;orthogonalLoop=1;jettySize=auto;html=1;" parent="1" source="MgTznX3Nh4NJQTIRdK1o-71" target="MgTznX3Nh4NJQTIRdK1o-64" edge="1">
          <mxGeometry relative="1" as="geometry" />
        </mxCell>
        <mxCell id="MgTznX3Nh4NJQTIRdK1o-71" value="Allocate Server" style="rounded=1;whiteSpace=wrap;html=1;" parent="1" vertex="1">
          <mxGeometry x="1111" y="406.5" width="122" height="36" as="geometry" />
        </mxCell>
        <mxCell id="MgTznX3Nh4NJQTIRdK1o-73" value="" style="edgeStyle=orthogonalEdgeStyle;rounded=0;orthogonalLoop=1;jettySize=auto;html=1;" parent="1" source="MgTznX3Nh4NJQTIRdK1o-77" target="MgTznX3Nh4NJQTIRdK1o-78" edge="1">
          <mxGeometry relative="1" as="geometry" />
        </mxCell>
        <mxCell id="MgTznX3Nh4NJQTIRdK1o-74" value="Yes" style="edgeLabel;html=1;align=center;verticalAlign=middle;resizable=0;points=[];" parent="MgTznX3Nh4NJQTIRdK1o-73" vertex="1" connectable="0">
          <mxGeometry x="-0.3418" y="-1" relative="1" as="geometry">
            <mxPoint y="1" as="offset" />
          </mxGeometry>
        </mxCell>
        <mxCell id="MgTznX3Nh4NJQTIRdK1o-75" style="edgeStyle=orthogonalEdgeStyle;rounded=0;orthogonalLoop=1;jettySize=auto;html=1;exitX=0.5;exitY=0;exitDx=0;exitDy=0;" parent="1" source="MgTznX3Nh4NJQTIRdK1o-77" edge="1">
          <mxGeometry relative="1" as="geometry">
            <mxPoint x="1172" y="443" as="targetPoint" />
          </mxGeometry>
        </mxCell>
        <mxCell id="MgTznX3Nh4NJQTIRdK1o-76" value="No" style="edgeLabel;html=1;align=center;verticalAlign=middle;resizable=0;points=[];" parent="MgTznX3Nh4NJQTIRdK1o-75" vertex="1" connectable="0">
          <mxGeometry x="-0.2167" relative="1" as="geometry">
            <mxPoint as="offset" />
          </mxGeometry>
        </mxCell>
        <mxCell id="MgTznX3Nh4NJQTIRdK1o-77" value="Is node online" style="rhombus;whiteSpace=wrap;html=1;" parent="1" vertex="1">
          <mxGeometry x="1123" y="484.5" width="98" height="90" as="geometry" />
        </mxCell>
        <mxCell id="MgTznX3Nh4NJQTIRdK1o-78" value="Temporary Redirect" style="rounded=1;whiteSpace=wrap;html=1;" parent="1" vertex="1">
          <mxGeometry x="1260" y="499" width="120" height="60" as="geometry" />
        </mxCell>
        <mxCell id="MgTznX3Nh4NJQTIRdK1o-79" value="" style="edgeStyle=orthogonalEdgeStyle;rounded=0;orthogonalLoop=1;jettySize=auto;html=1;" parent="1" source="MgTznX3Nh4NJQTIRdK1o-67" target="MgTznX3Nh4NJQTIRdK1o-77" edge="1">
          <mxGeometry relative="1" as="geometry" />
        </mxCell>
        <mxCell id="MgTznX3Nh4NJQTIRdK1o-80" value="No" style="edgeLabel;html=1;align=center;verticalAlign=middle;resizable=0;points=[];" parent="MgTznX3Nh4NJQTIRdK1o-79" vertex="1" connectable="0">
          <mxGeometry x="-0.12" y="-2" relative="1" as="geometry">
            <mxPoint as="offset" />
          </mxGeometry>
        </mxCell>
        <mxCell id="MgTznX3Nh4NJQTIRdK1o-81" value="" style="group" parent="1" vertex="1" connectable="0">
          <mxGeometry x="1112" y="335" width="120" height="40" as="geometry" />
        </mxCell>
        <mxCell id="MgTznX3Nh4NJQTIRdK1o-62" value="" style="rounded=1;whiteSpace=wrap;html=1;verticalAlign=top;arcSize=13;" parent="MgTznX3Nh4NJQTIRdK1o-81" vertex="1">
          <mxGeometry width="120" height="40" as="geometry" />
        </mxCell>
        <mxCell id="MgTznX3Nh4NJQTIRdK1o-64" value="Save node to MySQL" style="text;html=1;align=center;verticalAlign=middle;whiteSpace=wrap;rounded=0;" parent="MgTznX3Nh4NJQTIRdK1o-81" vertex="1">
          <mxGeometry x="17.5" y="5" width="85" height="30" as="geometry" />
        </mxCell>
        <mxCell id="MgTznX3Nh4NJQTIRdK1o-84" style="edgeStyle=orthogonalEdgeStyle;rounded=0;orthogonalLoop=1;jettySize=auto;html=1;entryX=0.5;entryY=0;entryDx=0;entryDy=0;" parent="1" source="MgTznX3Nh4NJQTIRdK1o-66" target="F9eBlbKyJguKDcQdJxCm-50" edge="1">
          <mxGeometry relative="1" as="geometry" />
        </mxCell>
        <mxCell id="MgTznX3Nh4NJQTIRdK1o-85" value="Yes" style="edgeLabel;html=1;align=center;verticalAlign=middle;resizable=0;points=[];" parent="MgTznX3Nh4NJQTIRdK1o-84" vertex="1" connectable="0">
          <mxGeometry x="-0.2874" y="-2" relative="1" as="geometry">
            <mxPoint as="offset" />
          </mxGeometry>
        </mxCell>
        <mxCell id="MgTznX3Nh4NJQTIRdK1o-86" style="edgeStyle=orthogonalEdgeStyle;rounded=0;orthogonalLoop=1;jettySize=auto;html=1;entryX=0.5;entryY=0;entryDx=0;entryDy=0;" parent="1" source="MgTznX3Nh4NJQTIRdK1o-62" target="MgTznX3Nh4NJQTIRdK1o-66" edge="1">
          <mxGeometry relative="1" as="geometry" />
        </mxCell>
        <mxCell id="MgTznX3Nh4NJQTIRdK1o-88" value="" style="edgeStyle=orthogonalEdgeStyle;rounded=0;orthogonalLoop=1;jettySize=auto;html=1;" parent="1" source="MgTznX3Nh4NJQTIRdK1o-89" target="MgTznX3Nh4NJQTIRdK1o-97" edge="1">
          <mxGeometry relative="1" as="geometry" />
        </mxCell>
        <mxCell id="MgTznX3Nh4NJQTIRdK1o-89" value="Actor" style="shape=umlActor;verticalLabelPosition=bottom;verticalAlign=top;html=1;outlineConnect=0;" parent="1" vertex="1">
          <mxGeometry x="909" y="2118" width="30" height="60" as="geometry" />
        </mxCell>
        <mxCell id="MgTznX3Nh4NJQTIRdK1o-90" value="" style="rounded=1;whiteSpace=wrap;html=1;verticalAlign=top;arcSize=13;" parent="1" vertex="1">
          <mxGeometry x="864" y="2325" width="120" height="40" as="geometry" />
        </mxCell>
        <mxCell id="MgTznX3Nh4NJQTIRdK1o-91" value="" style="edgeStyle=orthogonalEdgeStyle;rounded=0;orthogonalLoop=1;jettySize=auto;html=1;" parent="1" source="MgTznX3Nh4NJQTIRdK1o-92" target="MgTznX3Nh4NJQTIRdK1o-100" edge="1">
          <mxGeometry relative="1" as="geometry" />
        </mxCell>
        <mxCell id="MgTznX3Nh4NJQTIRdK1o-92" value="Allocate Server" style="text;html=1;align=center;verticalAlign=middle;whiteSpace=wrap;rounded=0;" parent="1" vertex="1">
          <mxGeometry x="881.5" y="2330" width="85" height="30" as="geometry" />
        </mxCell>
        <mxCell id="MgTznX3Nh4NJQTIRdK1o-96" value="" style="edgeStyle=orthogonalEdgeStyle;rounded=0;orthogonalLoop=1;jettySize=auto;html=1;" parent="1" source="MgTznX3Nh4NJQTIRdK1o-97" target="MgTznX3Nh4NJQTIRdK1o-92" edge="1">
          <mxGeometry relative="1" as="geometry" />
        </mxCell>
        <mxCell id="MgTznX3Nh4NJQTIRdK1o-97" value="Generate SessionId" style="rounded=1;whiteSpace=wrap;html=1;" parent="1" vertex="1">
          <mxGeometry x="861.5" y="2248" width="125" height="40" as="geometry" />
        </mxCell>
        <mxCell id="MgTznX3Nh4NJQTIRdK1o-99" value="" style="edgeStyle=orthogonalEdgeStyle;rounded=0;orthogonalLoop=1;jettySize=auto;html=1;entryX=0.5;entryY=0;entryDx=0;entryDy=0;" parent="1" source="MgTznX3Nh4NJQTIRdK1o-100" target="MgTznX3Nh4NJQTIRdK1o-111" edge="1">
          <mxGeometry relative="1" as="geometry">
            <mxPoint x="924" y="2512" as="targetPoint" />
          </mxGeometry>
        </mxCell>
        <mxCell id="MgTznX3Nh4NJQTIRdK1o-100" value="Save node to MySQL" style="rounded=1;whiteSpace=wrap;html=1;" parent="1" vertex="1">
          <mxGeometry x="863" y="2417.5" width="122" height="36" as="geometry" />
        </mxCell>
        <mxCell id="MgTznX3Nh4NJQTIRdK1o-111" value="Temporary Redirect" style="rounded=0;whiteSpace=wrap;html=1;" parent="1" vertex="1">
          <mxGeometry x="864" y="2552" width="120" height="60" as="geometry" />
        </mxCell>
        <mxCell id="MgTznX3Nh4NJQTIRdK1o-112" value="" style="edgeStyle=orthogonalEdgeStyle;rounded=0;orthogonalLoop=1;jettySize=auto;html=1;entryX=0.5;entryY=0;entryDx=0;entryDy=0;" parent="1" source="MgTznX3Nh4NJQTIRdK1o-113" target="MgTznX3Nh4NJQTIRdK1o-120" edge="1">
          <mxGeometry relative="1" as="geometry">
            <mxPoint x="1210" y="2241" as="targetPoint" />
          </mxGeometry>
        </mxCell>
        <mxCell id="MgTznX3Nh4NJQTIRdK1o-113" value="Actor" style="shape=umlActor;verticalLabelPosition=bottom;verticalAlign=top;html=1;outlineConnect=0;" parent="1" vertex="1">
          <mxGeometry x="1195" y="2111" width="30" height="60" as="geometry" />
        </mxCell>
        <mxCell id="MgTznX3Nh4NJQTIRdK1o-116" value="" style="group" parent="1" vertex="1" connectable="0">
          <mxGeometry x="1162" y="2422" width="97" height="80" as="geometry" />
        </mxCell>
        <mxCell id="MgTznX3Nh4NJQTIRdK1o-117" value="" style="rhombus;whiteSpace=wrap;html=1;verticalAlign=top;rounded=1;arcSize=13;" parent="MgTznX3Nh4NJQTIRdK1o-116" vertex="1">
          <mxGeometry width="95" height="80" as="geometry" />
        </mxCell>
        <mxCell id="MgTznX3Nh4NJQTIRdK1o-118" value="Is node online" style="text;html=1;align=center;verticalAlign=middle;whiteSpace=wrap;rounded=0;" parent="MgTznX3Nh4NJQTIRdK1o-116" vertex="1">
          <mxGeometry x="8.75" y="25" width="79.5" height="30" as="geometry" />
        </mxCell>
        <mxCell id="MgTznX3Nh4NJQTIRdK1o-119" style="edgeStyle=orthogonalEdgeStyle;rounded=0;orthogonalLoop=1;jettySize=auto;html=1;" parent="1" source="MgTznX3Nh4NJQTIRdK1o-120" target="MgTznX3Nh4NJQTIRdK1o-117" edge="1">
          <mxGeometry relative="1" as="geometry" />
        </mxCell>
        <mxCell id="MgTznX3Nh4NJQTIRdK1o-120" value="Find server by sessionId" style="rounded=1;whiteSpace=wrap;html=1;" parent="1" vertex="1">
          <mxGeometry x="1147" y="2262.5" width="125" height="40" as="geometry" />
        </mxCell>
        <mxCell id="MgTznX3Nh4NJQTIRdK1o-121" value="" style="edgeStyle=orthogonalEdgeStyle;rounded=0;orthogonalLoop=1;jettySize=auto;html=1;" parent="1" source="MgTznX3Nh4NJQTIRdK1o-122" target="MgTznX3Nh4NJQTIRdK1o-133" edge="1">
          <mxGeometry relative="1" as="geometry" />
        </mxCell>
        <mxCell id="MgTznX3Nh4NJQTIRdK1o-122" value="Allocate Server" style="rounded=1;whiteSpace=wrap;html=1;" parent="1" vertex="1">
          <mxGeometry x="1306.5" y="2381" width="122" height="36" as="geometry" />
        </mxCell>
        <mxCell id="MgTznX3Nh4NJQTIRdK1o-131" value="" style="group" parent="1" vertex="1" connectable="0">
          <mxGeometry x="1307.5" y="2309.5" width="120" height="40" as="geometry" />
        </mxCell>
        <mxCell id="MgTznX3Nh4NJQTIRdK1o-132" value="" style="rounded=1;whiteSpace=wrap;html=1;verticalAlign=top;arcSize=13;" parent="MgTznX3Nh4NJQTIRdK1o-131" vertex="1">
          <mxGeometry width="120" height="40" as="geometry" />
        </mxCell>
        <mxCell id="MgTznX3Nh4NJQTIRdK1o-133" value="Save node to MySQL" style="text;html=1;align=center;verticalAlign=middle;whiteSpace=wrap;rounded=0;" parent="MgTznX3Nh4NJQTIRdK1o-131" vertex="1">
          <mxGeometry x="17.5" y="5" width="85" height="30" as="geometry" />
        </mxCell>
        <mxCell id="MgTznX3Nh4NJQTIRdK1o-134" style="edgeStyle=orthogonalEdgeStyle;rounded=0;orthogonalLoop=1;jettySize=auto;html=1;entryX=0.5;entryY=0;entryDx=0;entryDy=0;" parent="1" source="MgTznX3Nh4NJQTIRdK1o-117" target="MgTznX3Nh4NJQTIRdK1o-139" edge="1">
          <mxGeometry relative="1" as="geometry">
            <mxPoint x="1209.5" y="2577" as="targetPoint" />
          </mxGeometry>
        </mxCell>
        <mxCell id="MgTznX3Nh4NJQTIRdK1o-135" value="Yes" style="edgeLabel;html=1;align=center;verticalAlign=middle;resizable=0;points=[];" parent="MgTznX3Nh4NJQTIRdK1o-134" vertex="1" connectable="0">
          <mxGeometry x="-0.2874" y="-2" relative="1" as="geometry">
            <mxPoint as="offset" />
          </mxGeometry>
        </mxCell>
        <mxCell id="MgTznX3Nh4NJQTIRdK1o-136" style="edgeStyle=orthogonalEdgeStyle;rounded=0;orthogonalLoop=1;jettySize=auto;html=1;entryX=0.5;entryY=0;entryDx=0;entryDy=0;" parent="1" source="MgTznX3Nh4NJQTIRdK1o-132" target="MgTznX3Nh4NJQTIRdK1o-117" edge="1">
          <mxGeometry relative="1" as="geometry" />
        </mxCell>
        <mxCell id="MgTznX3Nh4NJQTIRdK1o-137" style="edgeStyle=orthogonalEdgeStyle;rounded=0;orthogonalLoop=1;jettySize=auto;html=1;entryX=0.5;entryY=1;entryDx=0;entryDy=0;" parent="1" source="MgTznX3Nh4NJQTIRdK1o-117" target="MgTznX3Nh4NJQTIRdK1o-122" edge="1">
          <mxGeometry relative="1" as="geometry" />
        </mxCell>
        <mxCell id="MgTznX3Nh4NJQTIRdK1o-138" value="No" style="edgeLabel;html=1;align=center;verticalAlign=middle;resizable=0;points=[];" parent="MgTznX3Nh4NJQTIRdK1o-137" vertex="1" connectable="0">
          <mxGeometry x="-0.3183" y="2" relative="1" as="geometry">
            <mxPoint as="offset" />
          </mxGeometry>
        </mxCell>
        <mxCell id="MgTznX3Nh4NJQTIRdK1o-139" value="Temporary Redirect" style="rounded=0;whiteSpace=wrap;html=1;" parent="1" vertex="1">
          <mxGeometry x="1149.5" y="2552" width="120" height="60" as="geometry" />
        </mxCell>
        <mxCell id="MgTznX3Nh4NJQTIRdK1o-141" value="" style="edgeStyle=orthogonalEdgeStyle;rounded=0;orthogonalLoop=1;jettySize=auto;html=1;" parent="1" source="MgTznX3Nh4NJQTIRdK1o-142" target="MgTznX3Nh4NJQTIRdK1o-147" edge="1">
          <mxGeometry relative="1" as="geometry" />
        </mxCell>
        <mxCell id="MgTznX3Nh4NJQTIRdK1o-142" value="Actor" style="shape=umlActor;verticalLabelPosition=bottom;verticalAlign=top;html=1;outlineConnect=0;" parent="1" vertex="1">
          <mxGeometry x="325.5" y="2111" width="30" height="60" as="geometry" />
        </mxCell>
        <mxCell id="MgTznX3Nh4NJQTIRdK1o-147" value="Create Session" style="rounded=1;whiteSpace=wrap;html=1;" parent="1" vertex="1">
          <mxGeometry x="278" y="2241" width="125" height="40" as="geometry" />
        </mxCell>
        <mxCell id="MgTznX3Nh4NJQTIRdK1o-151" value="" style="edgeStyle=orthogonalEdgeStyle;rounded=0;orthogonalLoop=1;jettySize=auto;html=1;" parent="1" source="MgTznX3Nh4NJQTIRdK1o-152" target="MgTznX3Nh4NJQTIRdK1o-153" edge="1">
          <mxGeometry relative="1" as="geometry" />
        </mxCell>
        <mxCell id="MgTznX3Nh4NJQTIRdK1o-152" value="Actor" style="shape=umlActor;verticalLabelPosition=bottom;verticalAlign=top;html=1;outlineConnect=0;" parent="1" vertex="1">
          <mxGeometry x="510.5" y="2111" width="30" height="60" as="geometry" />
        </mxCell>
        <mxCell id="MgTznX3Nh4NJQTIRdK1o-153" value="Get Session" style="rounded=1;whiteSpace=wrap;html=1;" parent="1" vertex="1">
          <mxGeometry x="463" y="2241" width="125" height="40" as="geometry" />
        </mxCell>
        <mxCell id="ZICHwL9k2pLEv1YtmJDn-65" style="edgeStyle=orthogonalEdgeStyle;rounded=0;orthogonalLoop=1;jettySize=auto;html=1;entryX=0;entryY=0.25;entryDx=0;entryDy=0;exitX=0.5;exitY=0;exitDx=0;exitDy=0;curved=1;dashed=1;" edge="1" parent="1" source="ZICHwL9k2pLEv1YtmJDn-1" target="ZICHwL9k2pLEv1YtmJDn-7">
          <mxGeometry relative="1" as="geometry" />
        </mxCell>
        <mxCell id="ZICHwL9k2pLEv1YtmJDn-66" value="1. Create Session" style="edgeLabel;html=1;align=center;verticalAlign=middle;resizable=0;points=[];" vertex="1" connectable="0" parent="ZICHwL9k2pLEv1YtmJDn-65">
          <mxGeometry x="0.2082" y="3" relative="1" as="geometry">
            <mxPoint x="7" y="60" as="offset" />
          </mxGeometry>
        </mxCell>
        <mxCell id="ZICHwL9k2pLEv1YtmJDn-67" style="edgeStyle=orthogonalEdgeStyle;rounded=0;orthogonalLoop=1;jettySize=auto;html=1;entryX=0;entryY=0.5;entryDx=0;entryDy=0;exitX=0.5;exitY=1;exitDx=0;exitDy=0;curved=1;dashed=1;" edge="1" parent="1" source="ZICHwL9k2pLEv1YtmJDn-1" target="ZICHwL9k2pLEv1YtmJDn-47">
          <mxGeometry relative="1" as="geometry" />
        </mxCell>
        <mxCell id="ZICHwL9k2pLEv1YtmJDn-68" value="4. Create Session with Id" style="edgeLabel;html=1;align=center;verticalAlign=middle;resizable=0;points=[];" vertex="1" connectable="0" parent="ZICHwL9k2pLEv1YtmJDn-67">
          <mxGeometry x="-0.0397" y="2" relative="1" as="geometry">
            <mxPoint x="19" y="-19" as="offset" />
          </mxGeometry>
        </mxCell>
        <mxCell id="ZICHwL9k2pLEv1YtmJDn-1" value="ALB" style="rounded=1;whiteSpace=wrap;html=1;fillColor=#dae8fc;strokeColor=#6c8ebf;strokeWidth=2;" vertex="1" parent="1">
          <mxGeometry x="1141" y="1360" width="120" height="60" as="geometry" />
        </mxCell>
        <mxCell id="ZICHwL9k2pLEv1YtmJDn-2" value="SessionServlet" style="rounded=1;whiteSpace=wrap;html=1;fillColor=#ffe6cc;strokeColor=#d79b00;strokeWidth=2;" vertex="1" parent="1">
          <mxGeometry x="1412.5" y="1088" width="97" height="262" as="geometry" />
        </mxCell>
        <mxCell id="ZICHwL9k2pLEv1YtmJDn-5" value="SessionIdGenerator" style="rounded=1;whiteSpace=wrap;html=1;fillColor=#f8cecc;strokeColor=#b85450;strokeWidth=2;" vertex="1" parent="1">
          <mxGeometry x="1541.5" y="1103" width="129" height="95" as="geometry" />
        </mxCell>
        <mxCell id="ZICHwL9k2pLEv1YtmJDn-27" style="edgeStyle=orthogonalEdgeStyle;rounded=0;orthogonalLoop=1;jettySize=auto;html=1;" edge="1" parent="1" source="ZICHwL9k2pLEv1YtmJDn-6" target="ZICHwL9k2pLEv1YtmJDn-1">
          <mxGeometry relative="1" as="geometry" />
        </mxCell>
        <mxCell id="ZICHwL9k2pLEv1YtmJDn-6" value="Client" style="shape=umlActor;verticalLabelPosition=bottom;verticalAlign=top;html=1;outlineConnect=0;" vertex="1" parent="1">
          <mxGeometry x="1067" y="1360" width="30" height="60" as="geometry" />
        </mxCell>
        <mxCell id="ZICHwL9k2pLEv1YtmJDn-9" value="ServerAllocator" style="rounded=1;whiteSpace=wrap;html=1;fillColor=#e1d5e7;strokeColor=#9673a6;strokeWidth=2;" vertex="1" parent="1">
          <mxGeometry x="1541.5" y="1228" width="129" height="97" as="geometry" />
        </mxCell>
        <mxCell id="ZICHwL9k2pLEv1YtmJDn-10" value="Zookeeper" style="ellipse;shape=cloud;whiteSpace=wrap;html=1;strokeWidth=2;fillColor=#f5f5f5;fontColor=#333333;strokeColor=#666666;" vertex="1" parent="1">
          <mxGeometry x="1777" y="1108" width="267" height="174" as="geometry" />
        </mxCell>
        <mxCell id="ZICHwL9k2pLEv1YtmJDn-26" value="MySQL" style="shape=cylinder3;whiteSpace=wrap;html=1;boundedLbl=1;backgroundOutline=1;size=15;fillColor=#fff2cc;strokeColor=#d6b656;strokeWidth=2;" vertex="1" parent="1">
          <mxGeometry x="1866" y="1344" width="147" height="110" as="geometry" />
        </mxCell>
        <mxCell id="ZICHwL9k2pLEv1YtmJDn-47" value="" style="rounded=0;whiteSpace=wrap;html=1;dashed=1;fillColor=#f5f5f5;fontColor=#333333;strokeColor=#666666;strokeWidth=2;" vertex="1" parent="1">
          <mxGeometry x="1394.5" y="1402" width="313.5" height="228" as="geometry" />
        </mxCell>
        <mxCell id="ZICHwL9k2pLEv1YtmJDn-58" value="" style="group;fillColor=#d5e8d4;strokeColor=#82b366;strokeWidth=2;" vertex="1" connectable="0" parent="1">
          <mxGeometry x="1403" y="1422" width="140" height="184" as="geometry" />
        </mxCell>
        <mxCell id="ZICHwL9k2pLEv1YtmJDn-49" value="" style="rounded=0;whiteSpace=wrap;html=1;fillColor=#d5e8d4;strokeColor=#82b366;strokeWidth=2;" vertex="1" parent="ZICHwL9k2pLEv1YtmJDn-58">
          <mxGeometry width="140" height="184" as="geometry" />
        </mxCell>
        <mxCell id="ZICHwL9k2pLEv1YtmJDn-50" value="Worker" style="rounded=1;whiteSpace=wrap;html=1;fillColor=#f5f5f5;strokeColor=#666666;fontColor=#333333;" vertex="1" parent="ZICHwL9k2pLEv1YtmJDn-58">
          <mxGeometry x="8" y="34" width="120" height="60" as="geometry" />
        </mxCell>
        <mxCell id="ZICHwL9k2pLEv1YtmJDn-51" value="Worker" style="rounded=1;whiteSpace=wrap;html=1;fillColor=#f5f5f5;fontColor=#333333;strokeColor=#666666;" vertex="1" parent="ZICHwL9k2pLEv1YtmJDn-58">
          <mxGeometry x="8" y="110" width="120" height="60" as="geometry" />
        </mxCell>
        <mxCell id="ZICHwL9k2pLEv1YtmJDn-52" value="Group 1" style="text;html=1;whiteSpace=wrap;strokeColor=none;fillColor=none;align=center;verticalAlign=middle;rounded=0;" vertex="1" parent="ZICHwL9k2pLEv1YtmJDn-58">
          <mxGeometry x="80" y="2" width="60" height="30" as="geometry" />
        </mxCell>
        <mxCell id="ZICHwL9k2pLEv1YtmJDn-59" value="" style="group;fillColor=#d5e8d4;strokeColor=#82b366;strokeWidth=2;" vertex="1" connectable="0" parent="1">
          <mxGeometry x="1556" y="1423" width="140" height="184" as="geometry" />
        </mxCell>
        <mxCell id="ZICHwL9k2pLEv1YtmJDn-60" value="" style="rounded=0;whiteSpace=wrap;html=1;fillColor=#d5e8d4;strokeColor=#82b366;strokeWidth=2;" vertex="1" parent="ZICHwL9k2pLEv1YtmJDn-59">
          <mxGeometry width="140" height="184" as="geometry" />
        </mxCell>
        <mxCell id="ZICHwL9k2pLEv1YtmJDn-61" value="Worker" style="rounded=1;whiteSpace=wrap;html=1;fillColor=#f5f5f5;fontColor=#333333;strokeColor=#666666;" vertex="1" parent="ZICHwL9k2pLEv1YtmJDn-59">
          <mxGeometry x="8" y="34" width="120" height="60" as="geometry" />
        </mxCell>
        <mxCell id="ZICHwL9k2pLEv1YtmJDn-62" value="Worker" style="rounded=1;whiteSpace=wrap;html=1;fillColor=#f5f5f5;fontColor=#333333;strokeColor=#666666;" vertex="1" parent="ZICHwL9k2pLEv1YtmJDn-59">
          <mxGeometry x="8" y="110" width="120" height="60" as="geometry" />
        </mxCell>
        <mxCell id="ZICHwL9k2pLEv1YtmJDn-63" value="Group 2" style="text;html=1;whiteSpace=wrap;strokeColor=none;fillColor=none;align=center;verticalAlign=middle;rounded=0;" vertex="1" parent="ZICHwL9k2pLEv1YtmJDn-59">
          <mxGeometry x="80" y="2" width="60" height="30" as="geometry" />
        </mxCell>
        <mxCell id="ZICHwL9k2pLEv1YtmJDn-69" value="" style="endArrow=classic;html=1;rounded=0;exitX=1;exitY=0.75;exitDx=0;exitDy=0;curved=1;startArrow=none;startFill=0;endFill=1;dashed=1;" edge="1" parent="1" source="ZICHwL9k2pLEv1YtmJDn-47" target="ZICHwL9k2pLEv1YtmJDn-10">
          <mxGeometry width="50" height="50" relative="1" as="geometry">
            <mxPoint x="1780" y="1591.02" as="sourcePoint" />
            <mxPoint x="2057.472922658031" y="1285.0048713926749" as="targetPoint" />
            <Array as="points">
              <mxPoint x="2308" y="1529" />
            </Array>
          </mxGeometry>
        </mxCell>
        <mxCell id="ZICHwL9k2pLEv1YtmJDn-70" value="Register Node" style="edgeLabel;html=1;align=center;verticalAlign=middle;resizable=0;points=[];" vertex="1" connectable="0" parent="ZICHwL9k2pLEv1YtmJDn-69">
          <mxGeometry x="0.629" y="49" relative="1" as="geometry">
            <mxPoint as="offset" />
          </mxGeometry>
        </mxCell>
        <mxCell id="ZICHwL9k2pLEv1YtmJDn-71" value="" style="endArrow=classic;html=1;rounded=0;exitX=1;exitY=0.5;exitDx=0;exitDy=0;endFill=1;curved=1;dashed=1;" edge="1" parent="1">
          <mxGeometry width="50" height="50" relative="1" as="geometry">
            <mxPoint x="1680.5" y="1154.5" as="sourcePoint" />
            <mxPoint x="1819.2477630683984" y="1142.2987473183032" as="targetPoint" />
            <Array as="points">
              <mxPoint x="1770" y="1115" />
            </Array>
          </mxGeometry>
        </mxCell>
        <mxCell id="ZICHwL9k2pLEv1YtmJDn-72" value="2.1 Generate Session Id" style="edgeLabel;html=1;align=center;verticalAlign=middle;resizable=0;points=[];" vertex="1" connectable="0" parent="ZICHwL9k2pLEv1YtmJDn-71">
          <mxGeometry x="-0.0166" y="2" relative="1" as="geometry">
            <mxPoint x="16" y="-8" as="offset" />
          </mxGeometry>
        </mxCell>
        <mxCell id="ZICHwL9k2pLEv1YtmJDn-73" value="" style="endArrow=classic;html=1;rounded=0;endFill=1;dashed=1;" edge="1" parent="1" target="ZICHwL9k2pLEv1YtmJDn-10">
          <mxGeometry width="50" height="50" relative="1" as="geometry">
            <mxPoint x="1684" y="1284" as="sourcePoint" />
            <mxPoint x="1734" y="1234" as="targetPoint" />
          </mxGeometry>
        </mxCell>
        <mxCell id="ZICHwL9k2pLEv1YtmJDn-74" value="2.2 Get Active Nodes" style="edgeLabel;html=1;align=center;verticalAlign=middle;resizable=0;points=[];" vertex="1" connectable="0" parent="ZICHwL9k2pLEv1YtmJDn-73">
          <mxGeometry x="0.1432" y="-2" relative="1" as="geometry">
            <mxPoint x="20" y="21" as="offset" />
          </mxGeometry>
        </mxCell>
        <mxCell id="ZICHwL9k2pLEv1YtmJDn-75" value="" style="shape=flexArrow;endArrow=classic;startArrow=classic;html=1;rounded=0;" edge="1" parent="1">
          <mxGeometry width="100" height="100" relative="1" as="geometry">
            <mxPoint x="1751" y="1398.5" as="sourcePoint" />
            <mxPoint x="1839" y="1398.5" as="targetPoint" />
          </mxGeometry>
        </mxCell>
        <mxCell id="ZICHwL9k2pLEv1YtmJDn-77" value="Maintain Session Info" style="text;html=1;whiteSpace=wrap;strokeColor=none;fillColor=none;align=center;verticalAlign=middle;rounded=0;" vertex="1" parent="1">
          <mxGeometry x="1703" y="1355" width="183" height="30" as="geometry" />
        </mxCell>
        <mxCell id="ZICHwL9k2pLEv1YtmJDn-78" value="Gateway" style="text;html=1;whiteSpace=wrap;strokeColor=none;fillColor=none;align=center;verticalAlign=middle;rounded=0;" vertex="1" parent="1">
          <mxGeometry x="1636" y="1070" width="60" height="30" as="geometry" />
        </mxCell>
        <mxCell id="ZICHwL9k2pLEv1YtmJDn-80" style="edgeStyle=orthogonalEdgeStyle;rounded=0;orthogonalLoop=1;jettySize=auto;html=1;exitX=0;exitY=0.5;exitDx=0;exitDy=0;entryX=1;entryY=0.5;entryDx=0;entryDy=0;curved=1;dashed=1;" edge="1" parent="1" source="ZICHwL9k2pLEv1YtmJDn-82" target="ZICHwL9k2pLEv1YtmJDn-87">
          <mxGeometry relative="1" as="geometry">
            <Array as="points">
              <mxPoint x="2469" y="1791" />
              <mxPoint x="2469" y="1958" />
            </Array>
          </mxGeometry>
        </mxCell>
        <mxCell id="ZICHwL9k2pLEv1YtmJDn-81" value="3 return 307 with the&lt;div&gt;candidate address&lt;/div&gt;" style="edgeLabel;html=1;align=center;verticalAlign=middle;resizable=0;points=[];" vertex="1" connectable="0" parent="ZICHwL9k2pLEv1YtmJDn-80">
          <mxGeometry x="-0.2243" y="2" relative="1" as="geometry">
            <mxPoint x="-34" y="-35" as="offset" />
          </mxGeometry>
        </mxCell>
        <mxCell id="ZICHwL9k2pLEv1YtmJDn-82" value="" style="rounded=0;whiteSpace=wrap;html=1;dashed=1;fillColor=#f5f5f5;fontColor=#333333;strokeColor=#666666;strokeWidth=2;" vertex="1" parent="1">
          <mxGeometry x="2504.5" y="1638" width="384.5" height="306" as="geometry" />
        </mxCell>
        <mxCell id="ZICHwL9k2pLEv1YtmJDn-83" style="edgeStyle=orthogonalEdgeStyle;rounded=0;orthogonalLoop=1;jettySize=auto;html=1;entryX=0;entryY=0.25;entryDx=0;entryDy=0;exitX=0.5;exitY=0;exitDx=0;exitDy=0;curved=1;dashed=1;" edge="1" parent="1" source="ZICHwL9k2pLEv1YtmJDn-87" target="ZICHwL9k2pLEv1YtmJDn-82">
          <mxGeometry relative="1" as="geometry" />
        </mxCell>
        <mxCell id="ZICHwL9k2pLEv1YtmJDn-84" value="1. Get Session By Id" style="edgeLabel;html=1;align=center;verticalAlign=middle;resizable=0;points=[];" vertex="1" connectable="0" parent="ZICHwL9k2pLEv1YtmJDn-83">
          <mxGeometry x="0.2082" y="3" relative="1" as="geometry">
            <mxPoint x="7" y="60" as="offset" />
          </mxGeometry>
        </mxCell>
        <mxCell id="ZICHwL9k2pLEv1YtmJDn-85" style="edgeStyle=orthogonalEdgeStyle;rounded=0;orthogonalLoop=1;jettySize=auto;html=1;entryX=0;entryY=0.5;entryDx=0;entryDy=0;exitX=0.5;exitY=1;exitDx=0;exitDy=0;curved=1;dashed=1;" edge="1" parent="1" source="ZICHwL9k2pLEv1YtmJDn-87" target="ZICHwL9k2pLEv1YtmJDn-95">
          <mxGeometry relative="1" as="geometry" />
        </mxCell>
        <mxCell id="ZICHwL9k2pLEv1YtmJDn-86" value="4. Get Session By Id" style="edgeLabel;html=1;align=center;verticalAlign=middle;resizable=0;points=[];" vertex="1" connectable="0" parent="ZICHwL9k2pLEv1YtmJDn-85">
          <mxGeometry x="-0.0397" y="2" relative="1" as="geometry">
            <mxPoint x="19" y="-19" as="offset" />
          </mxGeometry>
        </mxCell>
        <mxCell id="ZICHwL9k2pLEv1YtmJDn-87" value="ALB" style="rounded=1;whiteSpace=wrap;html=1;fillColor=#dae8fc;strokeColor=#6c8ebf;strokeWidth=2;" vertex="1" parent="1">
          <mxGeometry x="2245" y="1928" width="120" height="60" as="geometry" />
        </mxCell>
        <mxCell id="ZICHwL9k2pLEv1YtmJDn-88" value="SessionServlet" style="rounded=1;whiteSpace=wrap;html=1;fillColor=#ffe6cc;strokeColor=#d79b00;strokeWidth=2;" vertex="1" parent="1">
          <mxGeometry x="2518.5" y="1656" width="128.5" height="262" as="geometry" />
        </mxCell>
        <mxCell id="ZICHwL9k2pLEv1YtmJDn-122" value="" style="edgeStyle=orthogonalEdgeStyle;rounded=0;orthogonalLoop=1;jettySize=auto;html=1;dashed=1;startArrow=none;startFill=0;" edge="1" parent="1" source="ZICHwL9k2pLEv1YtmJDn-89" target="ZICHwL9k2pLEv1YtmJDn-92">
          <mxGeometry relative="1" as="geometry" />
        </mxCell>
        <mxCell id="ZICHwL9k2pLEv1YtmJDn-123" value="2.2 Is active?" style="edgeLabel;html=1;align=center;verticalAlign=middle;resizable=0;points=[];labelBackgroundColor=none;" vertex="1" connectable="0" parent="ZICHwL9k2pLEv1YtmJDn-122">
          <mxGeometry x="-0.1333" y="1" relative="1" as="geometry">
            <mxPoint x="39" y="2" as="offset" />
          </mxGeometry>
        </mxCell>
        <mxCell id="ZICHwL9k2pLEv1YtmJDn-89" value="SessionAllocator" style="rounded=1;whiteSpace=wrap;html=1;fillColor=#f8cecc;strokeColor=#b85450;strokeWidth=2;" vertex="1" parent="1">
          <mxGeometry x="2742" y="1673" width="129" height="95" as="geometry" />
        </mxCell>
        <mxCell id="ZICHwL9k2pLEv1YtmJDn-90" style="edgeStyle=orthogonalEdgeStyle;rounded=0;orthogonalLoop=1;jettySize=auto;html=1;" edge="1" parent="1" source="ZICHwL9k2pLEv1YtmJDn-91" target="ZICHwL9k2pLEv1YtmJDn-87">
          <mxGeometry relative="1" as="geometry" />
        </mxCell>
        <mxCell id="ZICHwL9k2pLEv1YtmJDn-91" value="Client" style="shape=umlActor;verticalLabelPosition=bottom;verticalAlign=top;html=1;outlineConnect=0;" vertex="1" parent="1">
          <mxGeometry x="2171" y="1928" width="30" height="60" as="geometry" />
        </mxCell>
        <mxCell id="ZICHwL9k2pLEv1YtmJDn-93" value="Zookeeper" style="ellipse;shape=cloud;whiteSpace=wrap;html=1;strokeWidth=2;fillColor=#f5f5f5;fontColor=#333333;strokeColor=#666666;" vertex="1" parent="1">
          <mxGeometry x="2952" y="1875" width="267" height="174" as="geometry" />
        </mxCell>
        <mxCell id="ZICHwL9k2pLEv1YtmJDn-94" value="MySQL" style="shape=cylinder3;whiteSpace=wrap;html=1;boundedLbl=1;backgroundOutline=1;size=15;fillColor=#fff2cc;strokeColor=#d6b656;strokeWidth=2;" vertex="1" parent="1">
          <mxGeometry x="3030" y="1728.5" width="147" height="110" as="geometry" />
        </mxCell>
        <mxCell id="ZICHwL9k2pLEv1YtmJDn-95" value="" style="rounded=0;whiteSpace=wrap;html=1;dashed=1;fillColor=#f5f5f5;fontColor=#333333;strokeColor=#666666;strokeWidth=2;" vertex="1" parent="1">
          <mxGeometry x="2503.5" y="1970" width="313.5" height="228" as="geometry" />
        </mxCell>
        <mxCell id="ZICHwL9k2pLEv1YtmJDn-96" value="" style="group;fillColor=#d5e8d4;strokeColor=#82b366;strokeWidth=2;" vertex="1" connectable="0" parent="1">
          <mxGeometry x="2513" y="1990" width="140" height="184" as="geometry" />
        </mxCell>
        <mxCell id="ZICHwL9k2pLEv1YtmJDn-97" value="" style="rounded=0;whiteSpace=wrap;html=1;fillColor=#d5e8d4;strokeColor=#82b366;strokeWidth=2;" vertex="1" parent="ZICHwL9k2pLEv1YtmJDn-96">
          <mxGeometry width="140" height="184" as="geometry" />
        </mxCell>
        <mxCell id="ZICHwL9k2pLEv1YtmJDn-98" value="Worker" style="rounded=1;whiteSpace=wrap;html=1;fillColor=#f5f5f5;strokeColor=#666666;fontColor=#333333;" vertex="1" parent="ZICHwL9k2pLEv1YtmJDn-96">
          <mxGeometry x="8" y="34" width="120" height="60" as="geometry" />
        </mxCell>
        <mxCell id="ZICHwL9k2pLEv1YtmJDn-99" value="Worker" style="rounded=1;whiteSpace=wrap;html=1;fillColor=#f5f5f5;fontColor=#333333;strokeColor=#666666;" vertex="1" parent="ZICHwL9k2pLEv1YtmJDn-96">
          <mxGeometry x="8" y="110" width="120" height="60" as="geometry" />
        </mxCell>
        <mxCell id="ZICHwL9k2pLEv1YtmJDn-100" value="Group 1" style="text;html=1;whiteSpace=wrap;strokeColor=none;fillColor=none;align=center;verticalAlign=middle;rounded=0;" vertex="1" parent="ZICHwL9k2pLEv1YtmJDn-96">
          <mxGeometry x="80" y="2" width="60" height="30" as="geometry" />
        </mxCell>
        <mxCell id="ZICHwL9k2pLEv1YtmJDn-101" value="" style="group;fillColor=#d5e8d4;strokeColor=#82b366;strokeWidth=2;" vertex="1" connectable="0" parent="1">
          <mxGeometry x="2660" y="1991" width="140" height="184" as="geometry" />
        </mxCell>
        <mxCell id="ZICHwL9k2pLEv1YtmJDn-102" value="" style="rounded=0;whiteSpace=wrap;html=1;fillColor=#d5e8d4;strokeColor=#82b366;strokeWidth=2;" vertex="1" parent="ZICHwL9k2pLEv1YtmJDn-101">
          <mxGeometry width="140" height="184" as="geometry" />
        </mxCell>
        <mxCell id="ZICHwL9k2pLEv1YtmJDn-103" value="Worker" style="rounded=1;whiteSpace=wrap;html=1;fillColor=#f5f5f5;fontColor=#333333;strokeColor=#666666;" vertex="1" parent="ZICHwL9k2pLEv1YtmJDn-101">
          <mxGeometry x="8" y="34" width="120" height="60" as="geometry" />
        </mxCell>
        <mxCell id="ZICHwL9k2pLEv1YtmJDn-104" value="Worker" style="rounded=1;whiteSpace=wrap;html=1;fillColor=#f5f5f5;fontColor=#333333;strokeColor=#666666;" vertex="1" parent="ZICHwL9k2pLEv1YtmJDn-101">
          <mxGeometry x="8" y="110" width="120" height="60" as="geometry" />
        </mxCell>
        <mxCell id="ZICHwL9k2pLEv1YtmJDn-105" value="Group 2" style="text;html=1;whiteSpace=wrap;strokeColor=none;fillColor=none;align=center;verticalAlign=middle;rounded=0;" vertex="1" parent="ZICHwL9k2pLEv1YtmJDn-101">
          <mxGeometry x="80" y="2" width="60" height="30" as="geometry" />
        </mxCell>
        <mxCell id="ZICHwL9k2pLEv1YtmJDn-109" value="" style="endArrow=classic;html=1;rounded=0;endFill=1;dashed=1;" edge="1" parent="1" target="ZICHwL9k2pLEv1YtmJDn-93" source="ZICHwL9k2pLEv1YtmJDn-92">
          <mxGeometry width="50" height="50" relative="1" as="geometry">
            <mxPoint x="2788" y="1852" as="sourcePoint" />
            <mxPoint x="2838" y="1802" as="targetPoint" />
          </mxGeometry>
        </mxCell>
        <mxCell id="ZICHwL9k2pLEv1YtmJDn-110" value="2.3 Get Active Nodes" style="edgeLabel;html=1;align=center;verticalAlign=middle;resizable=0;points=[];labelBackgroundColor=none;" vertex="1" connectable="0" parent="ZICHwL9k2pLEv1YtmJDn-109">
          <mxGeometry x="0.1432" y="-2" relative="1" as="geometry">
            <mxPoint x="26" y="-20" as="offset" />
          </mxGeometry>
        </mxCell>
        <mxCell id="ZICHwL9k2pLEv1YtmJDn-113" value="Gateway" style="text;html=1;whiteSpace=wrap;strokeColor=none;fillColor=none;align=center;verticalAlign=middle;rounded=0;" vertex="1" parent="1">
          <mxGeometry x="2740" y="1638" width="60" height="30" as="geometry" />
        </mxCell>
        <mxCell id="ZICHwL9k2pLEv1YtmJDn-118" value="" style="endArrow=classic;html=1;rounded=0;endFill=1;dashed=1;" edge="1" parent="1" target="ZICHwL9k2pLEv1YtmJDn-92">
          <mxGeometry width="50" height="50" relative="1" as="geometry">
            <mxPoint x="2788" y="1852" as="sourcePoint" />
            <mxPoint x="3032" y="1951" as="targetPoint" />
          </mxGeometry>
        </mxCell>
        <mxCell id="ZICHwL9k2pLEv1YtmJDn-92" value="ServerAllocator" style="rounded=1;whiteSpace=wrap;html=1;fillColor=#e1d5e7;strokeColor=#9673a6;strokeWidth=2;" vertex="1" parent="1">
          <mxGeometry x="2742" y="1813" width="129" height="97" as="geometry" />
        </mxCell>
        <mxCell id="ZICHwL9k2pLEv1YtmJDn-120" value="" style="endArrow=classic;html=1;rounded=0;entryX=0.145;entryY=0;entryDx=0;entryDy=4.35;entryPerimeter=0;exitX=1;exitY=0.5;exitDx=0;exitDy=0;dashed=1;curved=1;" edge="1" parent="1" source="ZICHwL9k2pLEv1YtmJDn-89" target="ZICHwL9k2pLEv1YtmJDn-94">
          <mxGeometry width="50" height="50" relative="1" as="geometry">
            <mxPoint x="2853" y="1719" as="sourcePoint" />
            <mxPoint x="2903" y="1669" as="targetPoint" />
            <Array as="points">
              <mxPoint x="2929" y="1689" />
            </Array>
          </mxGeometry>
        </mxCell>
        <mxCell id="ZICHwL9k2pLEv1YtmJDn-121" value="2.2 Get server by id" style="edgeLabel;html=1;align=center;verticalAlign=middle;resizable=0;points=[];labelBackgroundColor=none;" vertex="1" connectable="0" parent="ZICHwL9k2pLEv1YtmJDn-120">
          <mxGeometry x="-0.3488" y="-2" relative="1" as="geometry">
            <mxPoint x="27" y="1" as="offset" />
          </mxGeometry>
        </mxCell>
        <mxCell id="ZICHwL9k2pLEv1YtmJDn-124" value="" style="endArrow=classic;html=1;rounded=0;entryX=0;entryY=0.5;entryDx=0;entryDy=0;exitX=0;exitY=0.5;exitDx=0;exitDy=0;curved=1;dashed=1;" edge="1" parent="1" source="ZICHwL9k2pLEv1YtmJDn-89" target="ZICHwL9k2pLEv1YtmJDn-92">
          <mxGeometry width="50" height="50" relative="1" as="geometry">
            <mxPoint x="2710" y="1721" as="sourcePoint" />
            <mxPoint x="2760" y="1671" as="targetPoint" />
            <Array as="points">
              <mxPoint x="2660" y="1793" />
            </Array>
          </mxGeometry>
        </mxCell>
        <mxCell id="ZICHwL9k2pLEv1YtmJDn-125" value="(2.4) Bind an active server" style="edgeLabel;html=1;align=center;verticalAlign=middle;resizable=0;points=[];labelBackgroundColor=none;" vertex="1" connectable="0" parent="ZICHwL9k2pLEv1YtmJDn-124">
          <mxGeometry x="-0.3153" y="16" relative="1" as="geometry">
            <mxPoint x="17" y="3" as="offset" />
          </mxGeometry>
        </mxCell>
        <mxCell id="ZICHwL9k2pLEv1YtmJDn-126" value="" style="endArrow=classic;html=1;rounded=0;entryX=1;entryY=0.5;entryDx=0;entryDy=0;entryPerimeter=0;curved=1;dashed=1;" edge="1" parent="1" target="ZICHwL9k2pLEv1YtmJDn-94">
          <mxGeometry width="50" height="50" relative="1" as="geometry">
            <mxPoint x="2837" y="2107" as="sourcePoint" />
            <mxPoint x="2887" y="2057" as="targetPoint" />
            <Array as="points">
              <mxPoint x="3388" y="2192" />
            </Array>
          </mxGeometry>
        </mxCell>
        <mxCell id="ZICHwL9k2pLEv1YtmJDn-127" value="(5). Recover Session Info" style="edgeLabel;html=1;align=center;verticalAlign=middle;resizable=0;points=[];" vertex="1" connectable="0" parent="ZICHwL9k2pLEv1YtmJDn-126">
          <mxGeometry x="-0.3128" y="89" relative="1" as="geometry">
            <mxPoint x="19" y="-23" as="offset" />
          </mxGeometry>
        </mxCell>
      </root>
    </mxGraphModel>
  </diagram>
</mxfile>
